# xmcd
#
# Track frame offsets: 
#        150
#        18899
#        41478
#        57661
#        81059
#        116418
#        132959
#        152613
#        172455
#        208309
#
# Disc length: 3021 seconds
#
# Revision: 1
# Processed by: cddbd v1.5.2PL0 Copyright (c) Steve Scherf et al.
# Submitted via: ExactAudioCopy v0.95b4
#
DISCID=890bcb0a
DTITLE=Mike Zito - Blue Room
DYEAR=1900
DGENRE=Blues
TTITLE0=Hollywood
TTITLE1=Pull the Trigger
TTITLE2=It's All Good
TTITLE3=Gravy Jam
TTITLE4=Lovering
TTITLE5=Shoes Blues
TTITLE6=Ways About You
TTITLE7=Soundcheck
TTITLE8=Lightening Bug
TTITLE9=Hollywood (Live)
EXTD=
EXTT0=
EXTT1=
EXTT2=
EXTT3=
EXTT4=
EXTT5=
EXTT6=
EXTT7=
EXTT8=
EXTT9=
PLAYORDER=
